<?xml version="1.0" encoding="UTF-8" standalone="no"?><!DOCTYPE svg PUBLIC "-//W3C//DTD SVG 1.1//EN" "http://www.w3.org/Graphics/SVG/1.1/DTD/svg11.dtd"><svg width="100%" height="100%" viewBox="0 0 952 422" version="1.1" xmlns="http://www.w3.org/2000/svg" xmlns:xlink="http://www.w3.org/1999/xlink" xml:space="preserve" xmlns:serif="http://www.serif.com/" style="fill-rule:evenodd;clip-rule:evenodd;stroke-linecap:round;stroke-linejoin:round;stroke-miterlimit:1.5;"><g><rect x="20.75" y="22.75" width="770" height="58" style="fill:#0092ff;stroke:#000;stroke-width:1px;"/><text x="161.985px" y="59.514px" style="font-family:'ArialMT', 'Arial', sans-serif;font-size:30px;fill:#fff;">Device Speciﬁc Plugins (SNMP<tspan x="574.925px 583.26px 589.939px 609.949px " y="59.514px 59.514px 59.514px 59.514px ">, AP</tspan>I)</text></g><g><rect x="20.75" y="92.75" width="250" height="58" style="fill:#0092ff;stroke:#000;stroke-width:1px;"/><text x="49.92px" y="127.814px" style="font-family:'ArialMT', 'Arial', sans-serif;font-size:24px;fill:#fff;">Discovery Plugins</text></g><g><rect x="280.75" y="92.75" width="250" height="58" style="fill:#0092ff;stroke:#000;stroke-width:1px;"/><text x="326.572px" y="127.814px" style="font-family:'ArialMT', 'Arial', sans-serif;font-size:24px;fill:#fff;">Polling Plugins</text></g><g><rect x="540.75" y="92.75" width="250" height="58" style="fill:#0092ff;stroke:#000;stroke-width:1px;"/><text x="561.881px" y="127.814px" style="font-family:'ArialMT', 'Arial', sans-serif;font-size:24px;fill:#fff;">Enrichment Plugins</text></g><g><rect x="20.75" y="162.75" width="770" height="58" style="fill:#0092ff;stroke:#000;stroke-width:1px;"/><text x="283.78px" y="199.331px" style="font-family:'ArialMT', 'Arial', sans-serif;font-size:30px;fill:#fff;">Plugin Framework</text></g><g><rect x="20.75" y="232.75" width="180" height="58" style="fill:#011a41;stroke:#000;stroke-width:1px;"/><text x="66.79px" y="269.514px" style="font-family:'ArialMT', 'Arial', sans-serif;font-size:30px;fill:#fff;">Celery</text></g><g><rect x="210.75" y="232.75" width="190" height="58" style="fill:#011a41;stroke:#000;stroke-width:1px;"/><text x="266.8px" y="272.312px" style="font-family:'ArialMT', 'Arial', sans-serif;font-size:30px;fill:#fff;">Redis</text></g><g><rect x="410.75" y="232.75" width="190" height="58" style="fill:#011a41;stroke:#000;stroke-width:1px;"/><text x="433.533px" y="269.506px" style="font-family:'ArialMT', 'Arial', sans-serif;font-size:30px;fill:#fff;">Zookeeper</text></g><g><rect x="610.75" y="232.75" width="180" height="58" style="fill:#011a41;stroke:#000;stroke-width:1px;"/><text x="661.932px" y="272.495px" style="font-family:'ArialMT', 'Arial', sans-serif;font-size:30px;fill:#fff;">Kafka</text></g><g><rect x="800.75" y="20.75" width="60" height="270" style="fill:#0065ff;stroke:#000;stroke-width:1px;"/><g transform="matrix(6.15827e-17,1,-1,6.15827e-17,376.37,-2238.56)"><text x="2337.02px" y="-443.636px" style="font-family:'ArialMT', 'Arial', sans-serif;font-size:30px;fill:#fff;">InﬂuxDB</text></g></g><g><rect x="870.75" y="20.75" width="60" height="270" style="fill:#0065ff;stroke:#000;stroke-width:1px;"/><g transform="matrix(6.15827e-17,1,-1,6.15827e-17,446.37,-2308.56)"><text x="2409.51px" y="-443.636px" style="font-family:'ArialMT', 'Arial', sans-serif;font-size:30px;fill:#fff;">Grafana</text></g></g><g><rect x="20.75" y="302.75" width="910" height="28" style="fill:#5b1c07;stroke:#000;stroke-width:1px;"/><text x="411.501px" y="323.791px" style="font-family:'ArialMT', 'Arial', sans-serif;font-size:20px;fill:#fff;">D<tspan x="427.148px 439.198px 451.248px 469.297px 481.347px 493.396px 499.416px 511.466px 523.516px 528.33px " y="323.791px 323.791px 323.791px 323.791px 323.791px 323.791px 323.791px 323.791px 323.791px 323.791px ">aemontools</tspan></text></g><g><rect x="20.75" y="342.75" width="910" height="58" style="fill:#ac350d;stroke:#000;stroke-width:1px;"/><text x="423.239px" y="382.304px" style="font-family:'ArialMT', 'Arial', sans-serif;font-size:30px;fill:#fff;">U<tspan x="446.709px 464.784px 482.859px 500.934px 509.964px " y="382.304px 382.304px 382.304px 382.304px 382.304px ">buntu</tspan></text></g><path d="M950.75,26.584c0,-14.258 -11.576,-25.834 -25.834,-25.834l-898.332,0c-14.258,0 -25.834,11.576 -25.834,25.834l0,368.332c0,14.258 11.576,25.834 25.834,25.834l898.332,0c14.258,0 25.834,-11.576 25.834,-25.834l0,-368.332Z" style="fill:none;stroke:#00345b;stroke-width:1.5px;"/></svg>